<svg id="Icon" xmlns="http://www.w3.org/2000/svg" viewBox="0 0 125 124.91"><title>logo</title><path d="M25.6,62.71a3.45,3.45,0,0,0,3.4,3h3.7a3.76,3.76,0,0,1,3.7,3.7v3.8a3.58,3.58,0,0,0,1.1,2.5,3.17,3.17,0,0,0,2.3.9h.3a3.45,3.45,0,0,0,3-3.4v-3.7a3.69,3.69,0,0,1,3.7-3.7h3.7a3.3,3.3,0,0,0,3.4-3,3.43,3.43,0,0,0-3.4-3.7H46.7a3.76,3.76,0,0,1-3.7-3.7v-3.9A3.41,3.41,0,0,0,41.9,49a3.92,3.92,0,0,0-2.6-.9,3.45,3.45,0,0,0-3,3.4v3.7a3.69,3.69,0,0,1-3.7,3.7H28.8A3.58,3.58,0,0,0,26.3,60,4.57,4.57,0,0,0,25.6,62.71Zm2.9-.7a.52.52,0,0,1,.4-.2h3.8a6.49,6.49,0,0,0,6.5-6.5v-3.7a.56.56,0,0,1,.5-.6c.2,0,.3.1.4.1a.52.52,0,0,1,.2.4v3.8a6.49,6.49,0,0,0,6.5,6.5h3.8a.52.52,0,0,1,.4.2c.1.1.2.2.1.4a.56.56,0,0,1-.6.5H46.8a6.49,6.49,0,0,0-6.5,6.5v3.7a.56.56,0,0,1-.5.6c-.2,0-.3-.1-.4-.1a.52.52,0,0,1-.2-.4v-3.7A6.49,6.49,0,0,0,32.7,63H29a.56.56,0,0,1-.6-.5A4.33,4.33,0,0,1,28.5,62Z"/><path d="M85,59a5.4,5.4,0,1,0-5.4-5.4A5.38,5.38,0,0,0,85,59Zm0-8a2.6,2.6,0,1,1-2.6,2.6A2.65,2.65,0,0,1,85,51Z"/><path d="M85,65.81a5.4,5.4,0,1,0,5.4,5.4A5.44,5.44,0,0,0,85,65.81Zm0,8a2.6,2.6,0,1,1,2.6-2.6A2.58,2.58,0,0,1,85,73.81Z"/><path d="M76.2,67.81a5.4,5.4,0,1,0-5.4-5.4A5.38,5.38,0,0,0,76.2,67.81Zm0-8a2.6,2.6,0,1,1-2.6,2.6A2.65,2.65,0,0,1,76.2,59.81Z"/><path d="M88.4,62.41A5.4,5.4,0,1,0,93.8,57,5.38,5.38,0,0,0,88.4,62.41Zm5.4-2.6a2.6,2.6,0,1,1-2.6,2.6A2.65,2.65,0,0,1,93.8,59.81Z"/><path d="M101.9,13.91a24.63,24.63,0,0,0-26.5-3.2,25,25,0,0,0-14.3,21.4h-4a5.34,5.34,0,0,0-5.3,5.3v.2H27.4A10.46,10.46,0,0,0,17,48v28.8a10.39,10.39,0,0,0,10.4,10.4h70a10.46,10.46,0,0,0,10.4-10.4V48a10.39,10.39,0,0,0-10.4-10.4H73.1v-.2a5.34,5.34,0,0,0-5.3-5.3H63.9a22.32,22.32,0,0,1,36.3-16,59.79,59.79,0,0,1,4.5,88.6,59.14,59.14,0,0,1-42.2,17.5h-.1A59.8,59.8,0,0,1,57.7,2.81,1.37,1.37,0,0,0,59,1.31,1.37,1.37,0,0,0,57.5,0a62.43,62.43,0,0,0-37.8,16.8,62.54,62.54,0,0,0,42.7,108.1h.1a62.49,62.49,0,0,0,39.4-111ZM105,48v28.8a7.6,7.6,0,0,1-7.6,7.6h-70a7.6,7.6,0,0,1-7.6-7.6V48a7.6,7.6,0,0,1,7.6-7.6h70A7.6,7.6,0,0,1,105,48ZM70.3,37.41v.2H54.5v-.2a2.48,2.48,0,0,1,2.5-2.5H67.8A2.48,2.48,0,0,1,70.3,37.41Z"/></svg>